<svg version="1.1" id="Layer_1" xmlns="http://www.w3.org/2000/svg" xmlns:xlink="http://www.w3.org/1999/xlink" x="0px" y="0px"
	 width="100%" viewBox="0 0 120 120" enable-background="new 0 0 120 120" xml:space="preserve">
<path fill="#037FBC" opacity="1.000000" stroke="none" 
	d="
M0.999999,115.000000 
	C1.000000,79.312439 1.000000,43.624878 1.264596,7.790564 
	C3.352794,5.429209 5.176397,3.214604 7.000000,1.000000 
	C42.687561,1.000000 78.375122,1.000000 114.209671,1.264792 
	C116.571106,3.353055 118.785553,5.176526 121.000000,6.999998 
	C121.000000,42.687561 121.000000,78.375122 120.735474,114.209351 
	C118.647301,116.570671 116.823654,118.785339 115.000000,121.000000 
	C79.312439,121.000000 43.624878,121.000000 7.790498,120.735352 
	C5.429121,118.647141 3.214560,116.823570 0.999999,115.000000 
M48.809952,98.438164 
	C48.809952,100.218834 48.809952,101.999512 48.809952,103.925148 
	C54.752602,103.925148 60.137745,103.925148 65.932182,103.925148 
	C65.932182,94.310158 65.877129,85.012123 65.969055,75.715546 
	C65.993484,73.245590 66.135727,70.685051 66.806519,68.332214 
	C68.237152,63.314167 72.220306,60.748985 77.372543,61.059944 
	C82.221146,61.352581 85.634460,64.278038 85.986153,69.740227 
	C86.531235,78.205795 86.413017,86.714722 86.547630,95.205711 
	C86.593864,98.122139 86.554977,101.039925 86.554977,103.837097 
	C92.928192,103.837097 98.483627,103.837097 104.061378,103.837097 
	C104.061378,90.274750 104.431564,77.108482 103.951958,63.973244 
	C103.516769,52.054585 95.258995,44.979431 83.326859,44.842323 
	C76.359413,44.762264 71.136490,48.116882 66.093147,53.231270 
	C65.963280,50.696522 65.873024,48.934872 65.767685,46.878914 
	C60.126297,46.878914 54.734035,46.878914 48.809929,46.878914 
	C48.809929,63.883854 48.809929,80.668518 48.809952,98.438164 
M32.447075,104.258209 
	C33.889233,104.176277 35.331387,104.094345 36.976486,104.000885 
	C36.976486,84.802124 36.976486,65.933807 36.976486,46.940388 
	C31.032549,46.940388 25.320425,46.940388 19.680342,46.940388 
	C19.680342,66.185089 19.680342,85.036934 19.680342,104.258408 
	C23.853403,104.258408 27.656956,104.258408 32.447075,104.258209 
M33.833542,19.302118 
	C27.667055,16.677141 22.863958,17.652483 19.665888,22.179081 
	C16.849274,26.165752 17.214636,31.937399 20.509293,35.502411 
	C24.625269,39.956139 31.350258,40.138203 35.612621,35.911301 
	C40.295643,31.267246 39.856049,25.171326 33.833542,19.302118 
z"/>
<path fill="#000000" opacity="1.000000" stroke="none" 
	d="
M6.500528,1.000000 
	C5.176397,3.214604 3.352794,5.429209 1.264596,7.321907 
	C1.000000,5.086773 1.000000,3.173546 1.000000,1.000000 
	C2.663430,1.000000 4.332244,1.000000 6.500528,1.000000 
z"/>
<path fill="#000000" opacity="1.000000" stroke="none" 
	d="
M121.000000,6.500526 
	C118.785553,5.176526 116.571106,3.353055 114.678329,1.264792 
	C116.913231,1.000000 118.826454,1.000000 121.000000,1.000000 
	C121.000000,2.663430 121.000000,4.332244 121.000000,6.500526 
z"/>
<path fill="#000000" opacity="1.000000" stroke="none" 
	d="
M0.999999,115.499474 
	C3.214560,116.823570 5.429121,118.647141 7.321841,120.735352 
	C5.086773,121.000000 3.173547,121.000000 1.000000,121.000000 
	C1.000000,119.336571 1.000000,117.667763 0.999999,115.499474 
z"/>
<path fill="#000000" opacity="1.000000" stroke="none" 
	d="
M115.499481,121.000000 
	C116.823654,118.785339 118.647301,116.570671 120.735474,114.678009 
	C121.000000,116.913223 121.000000,118.826454 121.000000,121.000000 
	C119.336571,121.000000 117.667763,121.000000 115.499481,121.000000 
z"/>
<path fill="#FDFEFF" opacity="1.000000" stroke="none" 
	d="
M48.809940,97.945679 
	C48.809929,80.668518 48.809929,63.883854 48.809929,46.878914 
	C54.734035,46.878914 60.126297,46.878914 65.767685,46.878914 
	C65.873024,48.934872 65.963280,50.696522 66.093147,53.231270 
	C71.136490,48.116882 76.359413,44.762264 83.326859,44.842323 
	C95.258995,44.979431 103.516769,52.054585 103.951958,63.973244 
	C104.431564,77.108482 104.061378,90.274750 104.061378,103.837097 
	C98.483627,103.837097 92.928192,103.837097 86.554977,103.837097 
	C86.554977,101.039925 86.593864,98.122139 86.547630,95.205711 
	C86.413017,86.714722 86.531235,78.205795 85.986153,69.740227 
	C85.634460,64.278038 82.221146,61.352581 77.372543,61.059944 
	C72.220306,60.748985 68.237152,63.314167 66.806519,68.332214 
	C66.135727,70.685051 65.993484,73.245590 65.969055,75.715546 
	C65.877129,85.012123 65.932182,94.310158 65.932182,103.925148 
	C60.137745,103.925148 54.752602,103.925148 48.809952,103.925148 
	C48.809952,101.999512 48.809952,100.218834 48.809940,97.945679 
z"/>
<path fill="#FAFCFE" opacity="1.000000" stroke="none" 
	d="
M31.953793,104.258308 
	C27.656956,104.258408 23.853403,104.258408 19.680342,104.258408 
	C19.680342,85.036934 19.680342,66.185089 19.680342,46.940388 
	C25.320425,46.940388 31.032549,46.940388 36.976486,46.940388 
	C36.976486,65.933807 36.976486,84.802124 36.976486,104.000885 
	C35.331387,104.094345 33.889233,104.176277 31.953793,104.258308 
z"/>
<path fill="#F9FCFE" opacity="1.000000" stroke="none" 
	d="
M34.141754,19.545366 
	C39.856049,25.171326 40.295643,31.267246 35.612621,35.911301 
	C31.350258,40.138203 24.625269,39.956139 20.509293,35.502411 
	C17.214636,31.937399 16.849274,26.165752 19.665888,22.179081 
	C22.863958,17.652483 27.667055,16.677141 34.141754,19.545366 
z"/>
</svg>